<?xml version="1.0" encoding="utf-8"?>
<!-- Generator: Adobe Illustrator 26.2.1, SVG Export Plug-In . SVG Version: 6.00 Build 0)  -->
<svg version="1.1" id="Layer_1" xmlns="http://www.w3.org/2000/svg" xmlns:xlink="http://www.w3.org/1999/xlink" x="0px" y="0px"
	 viewBox="0 0 200 200" style="enable-background:new 0 0 200 200;" xml:space="preserve">
<style type="text/css">
	.st0{fill:#EBEBEB;}
</style>
<g>
	<path class="st0" d="M138.2,88.7l-17.3-42.9c-4.2-10.4-16-15.4-26.4-11.2S79.1,50.6,83.3,61l17.3,42.9c0.6,1.5-0.1,3.2-1.6,3.8
		c-1.5,0.6-3.2-0.1-3.8-1.6l-17.3-43C72.5,49.8,79,34.6,92.3,29.3c13.3-5.4,28.5,1.1,33.9,14.4l8.7,21.5c1.8,4.4,6.9,6.6,11.3,4.8
		c4.4-1.8,6.6-6.9,4.8-11.3l-8.7-21.5c-9-22.2-34.3-32.9-56.5-24c-22.2,9-32.9,34.3-24,56.5l17.3,42.9c4.2,10.4,16,15.4,26.4,11.2
		c10.4-4.2,15.4-16,11.2-26.4L99.4,54.5c-0.6-1.5,0.1-3.2,1.6-3.8s3.2,0.1,3.8,1.6l17.3,42.9c5.4,13.3-1.1,28.5-14.4,33.9
		c-13.3,5.4-28.5-1.1-33.9-14.4l-8.7-21.5c-1.8-4.4-6.9-6.6-11.3-4.8c-4.4,1.8-6.6,6.9-4.8,11.3l8.7,21.5c9,22.2,34.3,32.9,56.5,24
		C136.4,136.2,147.1,110.9,138.2,88.7z M63.1,119l-8.7-21.5c-0.6-1.5,0.1-3.2,1.6-3.8c1.5-0.6,3.2,0.1,3.8,1.6l8.7,21.5
		c6.6,16.3,25.2,24.2,41.4,17.6c16.3-6.6,24.2-25.2,17.6-41.4l-17.3-42.9c-1.8-4.4-6.9-6.6-11.3-4.8s-6.6,6.9-4.8,11.3l17.3,42.9
		c3,7.4-0.6,15.8-8,18.8c-7.4,3-15.8-0.6-18.8-8L67.2,67.5c-7.8-19.3,1.5-41.2,20.8-49c19.2-7.8,41.2,1.6,48.9,20.8l8.7,21.5
		c0.6,1.5-0.1,3.2-1.6,3.8s-3.2-0.1-3.8-1.6l-8.7-21.5c-6.6-16.3-25.2-24.2-41.4-17.6C73.9,30.5,66,49,72.6,65.3l17.3,42.9
		c1.8,4.4,6.9,6.6,11.3,4.8c4.4-1.8,6.6-6.9,4.8-11.3L88.7,58.8c-3-7.4,0.6-15.8,8-18.8s15.8,0.6,18.8,8l17.3,42.9
		c7.8,19.2-1.6,41.2-20.8,48.9C92.8,147.6,70.8,138.3,63.1,119z"/>
	<g>
		<g>
			<path class="st0" d="M25.1,184.2c-0.6,0-1.3-0.1-1.9-0.3c-1.5-0.5-2.7-1.6-3.4-3c-0.2-0.4,0-0.9,0.4-1.1c0.4-0.2,0.9,0,1.1,0.4
				c0.5,1,1.4,1.8,2.4,2.1c1.1,0.4,2.2,0.3,3.2-0.2s1.8-1.4,2.1-2.5c0.3-1.1,0.3-2.2-0.2-3.1c-0.6-1.2-2.2-2.2-3.9-3.3
				c-2.1-1.3-4.2-2.7-5.2-4.7c-1.3-3-0.2-6.5,2.7-7.9c2.9-1.5,6.5-0.3,7.9,2.6c0.2,0.4,0,0.9-0.4,1.1c-0.4,0.2-0.9,0-1.1-0.4
				c-1-2.1-3.6-2.9-5.6-1.9s-2.9,3.5-1.9,5.7c0.7,1.6,2.6,2.8,4.5,4s3.7,2.3,4.5,3.9c0.7,1.4,0.8,3,0.4,4.5c-0.5,1.5-1.6,2.8-3,3.5
				C26.9,184,26,184.2,25.1,184.2z"/>
		</g>
		<g>
			<path class="st0" d="M46.3,184.2c-3.3,0-5.9-2.7-5.9-5.9v-16.6c0-0.5,0.4-0.9,0.9-0.9s0.9,0.4,0.9,0.9v16.6
				c0,2.3,1.9,4.2,4.2,4.2s4.2-1.9,4.2-4.2v-16.6c0-0.5,0.4-0.9,0.9-0.9s0.9,0.4,0.9,0.9v16.6C52.2,181.5,49.6,184.2,46.3,184.2z"/>
		</g>
		<g>
			<path class="st0" d="M153.6,184.2c-3.3,0-5.9-2.7-5.9-5.9v-16.6c0-0.5,0.4-0.9,0.9-0.9s0.9,0.4,0.9,0.9v16.6
				c0,2.3,1.9,4.2,4.2,4.2s4.2-1.9,4.2-4.2v-16.6c0-0.5,0.4-0.9,0.9-0.9s0.9,0.4,0.9,0.9v16.6C159.5,181.5,156.8,184.2,153.6,184.2z
				"/>
		</g>
		<g>
			<path class="st0" d="M179.9,184.2c-0.5,0-0.9-0.4-0.9-0.9v-16.6c0-2.3-1.9-4.2-4.2-4.2s-4.2,1.9-4.2,4.2v16.6
				c0,0.5-0.4,0.9-0.9,0.9s-0.9-0.4-0.9-0.9v-16.6c0-3.3,2.7-5.9,5.9-5.9c3.3,0,5.9,2.7,5.9,5.9v16.6
				C180.7,183.8,180.3,184.2,179.9,184.2z"/>
		</g>
		<g>
			<path class="st0" d="M132.4,184.2c-3.3,0-5.9-2.7-5.9-5.9v-11.5c0-3.3,2.7-5.9,5.9-5.9c3.3,0,5.9,2.7,5.9,5.9v11.5
				C138.3,181.5,135.7,184.2,132.4,184.2z M132.4,162.6c-2.3,0-4.2,1.9-4.2,4.2v11.5c0,2.3,1.9,4.2,4.2,4.2s4.2-1.9,4.2-4.2v-11.5
				C136.6,164.4,134.7,162.6,132.4,162.6z"/>
		</g>
		<path class="st0" d="M77.7,160.9c-2.1,0-4,1.2-5.1,2.9c-1-1.7-2.9-2.9-5.1-2.9c-3.3,0-5.9,2.7-5.9,5.9v16.6c0,0.5,0.4,0.9,0.9,0.9
			s0.9-0.4,0.9-0.9v-16.6c0-2.3,1.9-4.2,4.2-4.2c2.3,0,4.2,1.9,4.2,4.2v16.6c0,0.5,0.4,0.9,0.9,0.9s0.9-0.4,0.9-0.9v-16.6
			c0-2.3,1.9-4.2,4.2-4.2c2.3,0,4.2,1.9,4.2,4.2v16.6c0,0.5,0.4,0.9,0.9,0.9s0.9-0.4,0.9-0.9v-16.6
			C83.6,163.5,80.9,160.9,77.7,160.9z"/>
		<g>
			<path class="st0" d="M116.3,184.2c-0.5,0-0.9-0.4-0.9-0.9v-21.6c0-0.5,0.4-0.9,0.9-0.9s0.9,0.4,0.9,0.9v21.6
				C117.1,183.8,116.7,184.2,116.3,184.2z"/>
		</g>
		<g>
			<path class="st0" d="M93.8,190c-0.5,0-0.9-0.4-0.9-0.9v-22.4c0-3.3,2.7-5.9,5.9-5.9c3.3,0,5.9,2.7,5.9,5.9c0,2-1,3.8-2.5,4.8
				c2.2,1,3.8,3.3,3.8,5.9c0,3.6-2.9,6.6-6.6,6.6c-1.9,0-3.7-0.8-4.9-2.2v7.2C94.6,189.6,94.3,190,93.8,190z M94.6,177.5
				c0,2.7,2.2,4.9,4.9,4.9c2.7,0,4.9-2.2,4.9-4.9s-2.2-4.9-4.9-4.9h-0.6c-0.5,0-0.9-0.4-0.9-0.9s0.4-0.9,0.9-0.9
				c2.3,0,4.2-1.9,4.2-4.2s-1.9-4.2-4.2-4.2c-2.3,0-4.2,1.9-4.2,4.2v10.9H94.6z"/>
		</g>
	</g>
</g>
</svg>
