<?xml version="1.0" encoding="utf-8"?>
<!-- Generator: Adobe Illustrator 26.2.1, SVG Export Plug-In . SVG Version: 6.00 Build 0)  -->
<svg version="1.1" id="Layer_1" xmlns="http://www.w3.org/2000/svg" xmlns:xlink="http://www.w3.org/1999/xlink" x="0px" y="0px"
	 viewBox="0 0 400 260" style="enable-background:new 0 0 400 260;" xml:space="preserve">
<style type="text/css">
	.st0{fill:#EBEBEB;}
</style>
<g>
	<rect x="10.4" y="21.1" class="st0" width="6" height="24.4"/>
	<g>
		<polygon class="st0" points="145.2,6.7 139.1,6.7 136.5,17.2 139.8,17.2 		"/>
		<polygon class="st0" points="138,45.4 140,30.2 140.1,30.2 142.4,45.4 147.7,45.4 143.7,21.1 136.2,21.1 132.6,45.4 		"/>
	</g>
	<path class="st0" d="M174.1,45.4c-0.1-0.1-0.2-0.2-0.3-0.3c-0.6-0.6-1.3-1-2.2-1.1c1.7-0.5,2.9-1.6,3.5-3.4
		c0.6-1.7,0.9-4.1,0.9-7.1c0-2.8-0.2-5.1-0.6-6.9c-0.4-1.8-1.2-3.2-2.4-4.2c-1.2-0.9-3.1-1.4-5.7-1.4h-10.6v24.4
		C156.7,45.4,174.1,45.4,174.1,45.4z M162.8,25.8h3.4c1.1,0,2,0.2,2.5,0.5c0.5,0.4,0.9,1.1,1.1,2.1c0.2,1,0.3,2.5,0.3,4.5v0.3
		c0,2.4-0.1,4.2-0.3,5.4s-0.6,2-1.1,2.4s-1.3,0.6-2.3,0.6h-3.5L162.8,25.8L162.8,25.8z"/>
	<path class="st0" d="M202.4,45.4V33.8c0-2.8,0.3-4.8,0.8-6.1c0.5-1.3,1.6-2,3.1-2s2.5,0.7,2.9,2c0.4,1.4,0.7,3.4,0.7,6.1v11.6h6.1
		V34.2c0-2.1-0.1-4-0.4-5.7c-0.3-1.7-0.8-3.1-1.5-4.3c-0.7-1.2-1.7-2.1-2.9-2.8c-1.3-0.6-2.9-1-4.8-1c-2.6,0-4.6,0.6-6.1,1.7
		s-2.5,2.7-3.1,4.8c-0.6,2-0.9,4.5-0.9,7.3v11.3L202.4,45.4L202.4,45.4z"/>
	<path class="st0" d="M224.5,41c0.9,1.1,1.8,2.2,2.7,3.1l1.3,1.3h8.3c-0.6-0.8-1.2-1.5-1.9-2.2l-3.4-3.7c-0.9-0.9-1.7-1.8-2.3-2.5
		s-1.1-1.5-1.4-2.3c-0.3-0.8-0.5-1.8-0.5-3.1c0-1.4,0.1-2.5,0.4-3.4c0.2-0.9,0.6-1.5,1.2-2c0.6-0.4,1.3-0.6,2.2-0.6
		c1,0,1.7,0.3,2.1,0.9c0.5,0.6,0.8,1.6,0.9,2.8c0.2,1.2,0.2,2.8,0.2,4.7v3.3h5.7v-2.9c0-2.1-0.1-4-0.3-5.7s-0.6-3.2-1.2-4.4
		c-0.6-1.2-1.5-2.2-2.7-2.9c-1.2-0.7-2.8-1-4.8-1c-2.5,0-4.5,0.5-5.9,1.4c-1.4,1-2.4,2.3-2.9,4.1c-0.5,1.8-0.8,3.9-0.8,6.4
		c0,1.8,0.3,3.4,0.8,4.8C222.9,38.6,223.6,39.9,224.5,41z"/>
	<path class="st0" d="M282.6,45.4v-14h2.6c1.3,0,2.3,0.6,2.9,1.7s0.9,3,0.9,5.7v6.7h4V39c0-2.2-0.2-4.1-0.6-5.8
		c-0.4-1.6-1.2-2.9-2.3-3.7c-1.1-0.9-2.7-1.3-4.8-1.3h-6.7v17.3L282.6,45.4L282.6,45.4z"/>
	<polygon class="st0" points="26.4,45.4 32.5,45.4 32.5,26.1 37.5,26.1 37.5,21.1 21,21.1 21,26.1 26.4,26.1 	"/>
	<rect x="42.1" y="21.1" class="st0" width="6" height="24.4"/>
	<g>
		<polygon class="st0" points="76.5,45.4 76.5,21.1 71.1,21.1 71.1,39.4 71.4,45.4 		"/>
		<polygon class="st0" points="61.5,45.4 61.3,36.9 64.1,45.4 69,45.4 60.6,21.1 56,21.1 56,45.4 		"/>
	</g>
	<polygon class="st0" points="98.7,45.4 98.7,42.2 90.4,42.2 90.4,26.1 99.2,26.1 99.2,21.1 84.3,21.1 84.3,45.4 	"/>
	<path class="st0" d="M122.7,45.4c-0.1-0.1-0.2-0.2-0.3-0.3c-0.6-0.6-1.3-1-2.2-1.1c1.7-0.5,2.9-1.6,3.5-3.4
		c0.6-1.7,0.9-4.1,0.9-7.1c0-2.8-0.2-5.1-0.6-6.9s-1.2-3.2-2.4-4.2c-1.2-0.9-3.1-1.4-5.7-1.4h-10.6v24.4
		C105.3,45.4,122.7,45.4,122.7,45.4z M111.4,25.8h3.4c1.1,0,2,0.2,2.5,0.5c0.5,0.4,0.9,1.1,1.1,2.1s0.3,2.5,0.3,4.5v0.3
		c0,2.4-0.1,4.2-0.3,5.4c-0.2,1.2-0.6,2-1.1,2.4s-1.3,0.6-2.3,0.6h-3.5L111.4,25.8L111.4,25.8z"/>
	<rect x="183" y="21.1" class="st0" width="6" height="24.4"/>
	<polygon class="st0" points="303.8,45.4 305.3,34.9 305.3,34.9 307,45.4 310.4,45.4 307.5,28.1 302.9,28.1 300.2,45.4 	"/>
</g>
<g>
	<rect x="10.4" y="47.9" class="st0" width="6" height="24.4"/>
	<g>
		<polygon class="st0" points="138,72.3 140,57 140.1,57 142.4,72.3 147.7,72.3 143.7,47.9 136.2,47.9 132.6,72.3 		"/>
	</g>
	<path class="st0" d="M174.1,72.3c-0.1-0.1-0.2-0.2-0.3-0.3c-0.6-0.6-1.3-1-2.2-1.1c1.7-0.5,2.9-1.6,3.5-3.4
		c0.6-1.7,0.9-4.1,0.9-7.1c0-2.8-0.2-5.1-0.6-6.9c-0.4-1.8-1.2-3.2-2.4-4.2c-1.2-0.9-3.1-1.4-5.7-1.4h-10.6v24.4
		C156.7,72.3,174.1,72.3,174.1,72.3z M162.8,52.7h3.4c1.1,0,2,0.2,2.5,0.5c0.5,0.4,0.9,1.1,1.1,2.1c0.2,1,0.3,2.5,0.3,4.5v0.3
		c0,2.4-0.1,4.2-0.3,5.4c-0.2,1.2-0.6,2-1.1,2.4s-1.3,0.6-2.3,0.6h-3.5L162.8,52.7L162.8,52.7z"/>
	<path class="st0" d="M202.4,72.3V60.7c0-2.8,0.3-4.8,0.8-6.1s1.6-2,3.1-2s2.5,0.7,2.9,2c0.4,1.4,0.7,3.4,0.7,6.1v11.6h6.1V61
		c0-2.1-0.1-4-0.4-5.7c-0.3-1.7-0.8-3.1-1.5-4.3s-1.7-2.1-2.9-2.8c-1.3-0.6-2.9-1-4.8-1c-2.6,0-4.6,0.6-6.1,1.7
		c-1.5,1.1-2.5,2.7-3.1,4.8c-0.6,2-0.9,4.5-0.9,7.3v11.3H202.4z"/>
	<path class="st0" d="M224.5,67.9c0.9,1.1,1.8,2.2,2.7,3.1l1.3,1.3h8.3c-0.6-0.8-1.2-1.5-1.9-2.2l-3.4-3.7c-0.9-0.9-1.7-1.8-2.3-2.5
		c-0.6-0.7-1.1-1.5-1.4-2.3c-0.3-0.8-0.5-1.8-0.5-3.1c0-1.4,0.1-2.5,0.4-3.4c0.2-0.9,0.6-1.5,1.2-2c0.6-0.4,1.3-0.6,2.2-0.6
		c1,0,1.7,0.3,2.1,0.9c0.5,0.6,0.8,1.6,0.9,2.8c0.2,1.2,0.2,2.8,0.2,4.7v3.3h5.7v-2.9c0-2.1-0.1-4-0.3-5.7s-0.6-3.2-1.2-4.4
		c-0.6-1.2-1.5-2.2-2.7-2.9s-2.8-1-4.8-1c-2.5,0-4.5,0.5-5.9,1.4c-1.4,1-2.4,2.3-2.9,4.1s-0.8,3.9-0.8,6.4c0,1.8,0.3,3.4,0.8,4.8
		C222.9,65.5,223.6,66.8,224.5,67.9z"/>
	<path class="st0" d="M282.6,72.3V58.2h2.6c1.3,0,2.3,0.6,2.9,1.7c0.6,1.1,0.9,3,0.9,5.7v6.7h4v-6.5c0-2.2-0.2-4.1-0.6-5.8
		c-0.4-1.6-1.2-2.9-2.3-3.7c-1.1-0.9-2.7-1.3-4.8-1.3h-6.7v17.3C278.6,72.3,282.6,72.3,282.6,72.3z"/>
	<polygon class="st0" points="26.4,72.3 32.5,72.3 32.5,53 37.5,53 37.5,47.9 21,47.9 21,53 26.4,53 	"/>
	<rect x="42.1" y="47.9" class="st0" width="6" height="24.4"/>
	<g>
		<polygon class="st0" points="76.5,72.3 76.5,47.9 71.1,47.9 71.1,66.3 71.4,72.3 		"/>
		<polygon class="st0" points="61.5,72.3 61.3,63.8 64.1,72.3 69,72.3 60.6,47.9 56,47.9 56,72.3 		"/>
	</g>
	<polygon class="st0" points="98.7,72.3 98.7,69.1 90.4,69.1 90.4,53 99.2,53 99.2,47.9 84.3,47.9 84.3,72.3 	"/>
	<path class="st0" d="M122.7,72.3c-0.1-0.1-0.2-0.2-0.3-0.3c-0.6-0.6-1.3-1-2.2-1.1c1.7-0.5,2.9-1.6,3.5-3.4
		c0.6-1.7,0.9-4.1,0.9-7.1c0-2.8-0.2-5.1-0.6-6.9c-0.4-1.8-1.2-3.2-2.4-4.2c-1.2-0.9-3.1-1.4-5.7-1.4h-10.6v24.4
		C105.3,72.3,122.7,72.3,122.7,72.3z M111.4,52.7h3.4c1.1,0,2,0.2,2.5,0.5c0.5,0.4,0.9,1.1,1.1,2.1s0.3,2.5,0.3,4.5v0.3
		c0,2.4-0.1,4.2-0.3,5.4c-0.2,1.2-0.6,2-1.1,2.4s-1.3,0.6-2.3,0.6h-3.5L111.4,52.7L111.4,52.7z"/>
	<rect x="183" y="47.9" class="st0" width="6" height="24.4"/>
	<polygon class="st0" points="303.8,72.3 305.3,61.8 305.3,61.8 307,72.3 310.4,72.3 307.5,55 302.9,55 300.2,72.3 	"/>
</g>
<g>
	<polygon class="st0" points="10.3,187.9 10.3,218.5 19.3,218.5 19.3,187.9 10.4,187.9 	"/>
	<g>
		<polygon class="st0" points="47.4,187.9 47.7,195 45.2,187.9 38.1,187.9 48.8,218.5 55.1,218.5 55.1,187.9 		"/>
		<polygon class="st0" points="28.3,187.9 28.3,218.5 36.5,218.5 36.5,197.5 36.2,187.9 		"/>
	</g>
	<polygon class="st0" points="106.5,192.1 116.7,192.1 116.7,187.9 97.6,187.9 97.6,218.5 117.7,218.5 117.7,210.8 106.5,210.8 	"/>
	<path class="st0" d="M137.3,187.9c-0.3,0.1-0.7,0.1-1,0.1h-3.1v-0.1h-8.9v30.6h8.9v-23.2h4.8c3.1,0,5.5-0.7,7.1-2.1
		c1.5-1.3,2.7-3.1,3.3-5.4L137.3,187.9L137.3,187.9z"/>
	<polygon class="st0" points="164.7,192.1 174.9,192.1 174.9,187.9 155.8,187.9 155.8,218.5 175.8,218.5 175.8,210.8 164.7,210.8 	
		"/>
	<g>
		<polygon class="st0" points="182.5,187.9 182.5,218.5 190.7,218.5 190.7,197.5 190.4,187.9 		"/>
		<polygon class="st0" points="201.6,187.9 201.9,195 199.4,187.9 192.2,187.9 203,218.5 209.3,218.5 209.3,187.9 		"/>
	</g>
	<path class="st0" d="M234.7,187.9v16.2c0,2-0.2,3.5-0.5,4.6s-0.9,1.8-1.6,2.3c-0.7,0.4-1.6,0.6-2.6,0.6h-2.9v-23.7h-8.9v30.6H231
		c3.1,0,5.5-0.6,7.4-1.9c1.8-1.2,3.2-3.1,4-5.7c0.8-2.5,1.3-5.7,1.3-9.6v-13.5L234.7,187.9L234.7,187.9z"/>
	<polygon class="st0" points="260.7,192.1 270.9,192.1 270.9,187.9 251.8,187.9 251.8,218.5 271.9,218.5 271.9,210.8 260.7,210.8 	
		"/>
	<g>
		<polygon class="st0" points="278.5,187.9 278.5,218.5 286.7,218.5 286.7,197.5 286.4,187.9 		"/>
		<polygon class="st0" points="297.6,187.9 297.9,195 295.4,187.9 288.3,187.9 299,218.5 305.3,218.5 305.3,187.9 		"/>
	</g>
	<path class="st0" d="M330.2,202.6c0,3.1-0.3,5.4-0.8,6.8c-0.5,1.4-1.6,2.1-3.1,2.1c-1,0-1.8-0.3-2.3-0.9c-0.6-0.6-1-1.6-1.2-2.9
		c-0.2-1.3-0.4-3-0.4-5v-14.8h-9v14.4c0,3.6,0.5,6.6,1.4,9.2c0.9,2.5,2.4,4.4,4.3,5.8c1.9,1.3,4.3,2,7.1,2c3,0,5.4-0.6,7.3-1.8
		s3.3-3.1,4.1-5.6c0.9-2.5,1.3-5.6,1.3-9.3v-8.3h-8.8v8.3H330.2z"/>
	<rect x="346.7" y="187.9" class="st0" width="8.9" height="30.6"/>
	<polygon class="st0" points="377.8,187.9 379.6,200.9 371.9,200.9 373.5,187.9 365.5,187.9 361.1,218.5 369.7,218.5 371,208 
		380.5,208 381.9,218.5 390.2,218.5 385.6,187.9 	"/>
	<path class="st0" d="M80.5,187.9v16.2c0,2-0.2,3.5-0.5,4.6s-0.9,1.8-1.6,2.3c-0.7,0.4-1.6,0.6-2.6,0.6h-2.9v-23.7H64v30.6h12.9
		c3.1,0,5.5-0.6,7.4-1.9c1.8-1.2,3.2-3.1,4-5.7c0.8-2.5,1.3-5.7,1.3-9.6v-13.5L80.5,187.9L80.5,187.9z"/>
</g>
<g>
	<g>
		<polygon class="st0" points="47.4,221.3 47.7,228.4 45.2,221.3 38.1,221.3 48.8,251.9 55.1,251.9 55.1,221.3 		"/>
		<polygon class="st0" points="28.3,221.3 28.3,251.9 36.5,251.9 36.5,230.9 36.2,221.3 		"/>
	</g>
	<polygon class="st0" points="106.5,225.5 116.7,225.5 116.7,221.3 97.6,221.3 97.6,251.9 117.7,251.9 117.7,244.2 106.5,244.2 	"/>
	<path class="st0" d="M137.3,221.3c-0.3,0.1-0.7,0.1-1,0.1h-3.1v-0.1h-8.9v30.6h8.9v-23.2h4.8c3.1,0,5.5-0.7,7.1-2.1
		c1.5-1.3,2.7-3.1,3.3-5.4L137.3,221.3L137.3,221.3z"/>
	<polygon class="st0" points="164.7,225.5 174.9,225.5 174.9,221.3 155.8,221.3 155.8,251.9 175.8,251.9 175.8,244.2 164.7,244.2 	
		"/>
	<g>
		<polygon class="st0" points="182.5,221.3 182.5,251.9 190.7,251.9 190.7,230.9 190.4,221.3 		"/>
		<polygon class="st0" points="201.6,221.3 201.9,228.4 199.4,221.3 192.2,221.3 203,251.9 209.3,251.9 209.3,221.3 		"/>
	</g>
	<path class="st0" d="M234.7,221.3v16.2c0,2-0.2,3.5-0.5,4.6s-0.9,1.8-1.6,2.3c-0.7,0.4-1.6,0.6-2.6,0.6h-2.9v-23.7h-8.9v30.6H231
		c3.1,0,5.5-0.6,7.4-1.9c1.8-1.2,3.2-3.1,4-5.7c0.8-2.5,1.3-5.7,1.3-9.6v-13.5L234.7,221.3L234.7,221.3z"/>
	<polygon class="st0" points="260.7,225.5 270.9,225.5 270.9,221.3 251.8,221.3 251.8,251.9 271.9,251.9 271.9,244.2 260.7,244.2 	
		"/>
	<g>
		<polygon class="st0" points="278.5,221.3 278.5,251.9 286.7,251.9 286.7,230.9 286.4,221.3 		"/>
		<polygon class="st0" points="297.6,221.3 297.9,228.4 295.4,221.3 288.3,221.3 299,251.9 305.3,251.9 305.3,221.3 		"/>
	</g>
	<path class="st0" d="M330.2,236c0,3.1-0.3,5.4-0.8,6.8c-0.5,1.4-1.6,2.1-3.1,2.1c-1,0-1.8-0.3-2.3-0.9c-0.6-0.6-1-1.6-1.2-2.9
		c-0.2-1.3-0.4-3-0.4-5v-14.8h-9v14.4c0,3.6,0.5,6.6,1.4,9.2c0.9,2.5,2.4,4.4,4.3,5.8c1.9,1.3,4.3,2,7.1,2c3,0,5.4-0.6,7.3-1.8
		s3.3-3.1,4.1-5.6c0.9-2.5,1.3-5.6,1.3-9.3v-8.3h-8.8v8.3H330.2z"/>
	<rect x="346.7" y="221.3" class="st0" width="8.9" height="30.6"/>
	<polygon class="st0" points="377.8,221.3 379.6,234.3 371.9,234.3 373.5,221.3 365.5,221.3 361.1,251.9 369.7,251.9 371,241.4 
		380.5,241.4 381.9,251.9 390.2,251.9 385.6,221.3 	"/>
	<path class="st0" d="M80.5,221.3v16.2c0,2-0.2,3.5-0.5,4.6s-0.9,1.8-1.6,2.3c-0.7,0.4-1.6,0.6-2.6,0.6h-2.9v-23.7H64v30.6h12.9
		c3.1,0,5.5-0.6,7.4-1.9c1.8-1.2,3.2-3.1,4-5.7c0.8-2.5,1.3-5.7,1.3-9.6v-13.5L80.5,221.3L80.5,221.3z"/>
	<polygon class="st0" points="10.3,221.3 10.3,251.9 19.3,251.9 19.3,221.3 10.4,221.3 	"/>
</g>
<g>
	<g>
		<path class="st0" d="M10.4,123.4V74.8h6v48.6H10.4z"/>
		<path class="st0" d="M26.4,123.4V79.9H21v-5.1h16.5v5.1h-5.1v43.5H26.4z"/>
		<path class="st0" d="M42.1,123.4V74.8h6v48.6H42.1z"/>
		<path class="st0" d="M56,123.4V74.8h4.6l11,32.2L71,93.1V74.8h5.4v48.6H72L61.3,90.7l0.3,12.4v20.3C61.6,123.4,56,123.4,56,123.4z
			"/>
		<path class="st0" d="M84.3,123.4V74.8h14.9v5.1h-8.8V96h8.4v5.1h-8.4v17.2h9v5.1H84.3z"/>
		<path class="st0" d="M105.4,123.4V74.8H116c2.6,0,4.5,0.5,5.7,1.4s2.1,2.3,2.4,4.2c0.4,1.8,0.6,4.2,0.6,6.9c0,3-0.3,5.3-0.9,7.1
			c-0.6,1.7-1.8,2.9-3.5,3.4c0.9,0.1,1.6,0.5,2.2,1.1s1,1.5,1.4,2.7c0.3,1.2,0.6,2.9,0.7,4.9c0.1,2.1,0.2,4.6,0.2,7.7
			c0,0.3,0,0.7,0,1.4c0,0.6,0,1.4,0,2.2c0,0.8,0,1.6,0.1,2.4c0,0.8,0.1,1.5,0.1,2c0.1,0.6,0.1,1,0.2,1.2h-6
			c-0.1-0.1-0.1-0.5-0.2-1.2c-0.1-0.6-0.1-1.5-0.1-2.5s-0.1-2.2-0.1-3.5c0-1.4,0-2.8,0-4.4s0-3.2,0-5s-0.1-3.1-0.2-4
			c-0.2-0.9-0.5-1.6-1.1-1.9c-0.6-0.4-1.5-0.6-2.7-0.6l-3.2-0.2v23.3C111.6,123.4,105.4,123.4,105.4,123.4z M111.4,95.5h3.5
			c1,0,1.8-0.2,2.3-0.6s0.9-1.2,1.1-2.4c0.2-1.2,0.3-3,0.3-5.4v-0.3c0-2-0.1-3.5-0.3-4.5c-0.2-1-0.6-1.7-1.1-2.1s-1.4-0.5-2.5-0.5
			h-3.4L111.4,95.5L111.4,95.5z"/>
		<path class="st0" d="M128.9,123.4l7.3-48.6h7.5l7.9,48.6h-5.7l-1.4-9.1h-8.6l-1.2,9.1H128.9z M136.6,109.3h7.2l-3.7-25.4H140
			L136.6,109.3z"/>
		<path class="st0" d="M156.8,123.4V74.8h10.6c2.6,0,4.5,0.5,5.7,1.4s2.1,2.3,2.4,4.2c0.4,1.8,0.6,4.2,0.6,6.9c0,3-0.3,5.3-0.9,7.1
			c-0.6,1.7-1.8,2.9-3.5,3.4c0.9,0.1,1.6,0.5,2.2,1.1c0.6,0.6,1,1.5,1.4,2.7c0.3,1.2,0.6,2.9,0.7,4.9c0.1,2.1,0.2,4.6,0.2,7.7
			c0,0.3,0,0.7,0,1.4c0,0.6,0,1.4,0,2.2c0,0.8,0,1.6,0.1,2.4c0,0.8,0.1,1.5,0.1,2c0.1,0.6,0.1,1,0.2,1.2h-6
			c-0.1-0.1-0.1-0.5-0.2-1.2c-0.1-0.6-0.1-1.5-0.1-2.5s-0.1-2.2-0.1-3.5c0-1.4,0-2.8,0-4.4s0-3.2,0-5s-0.1-3.1-0.2-4
			c-0.2-0.9-0.5-1.6-1.1-1.9s-1.5-0.6-2.7-0.6l-3.2-0.2v23.3C163,123.4,156.8,123.4,156.8,123.4z M162.8,95.5h3.5
			c1,0,1.8-0.2,2.3-0.6s0.9-1.2,1.1-2.4c0.2-1.2,0.3-3,0.3-5.4v-0.3c0-2-0.1-3.5-0.3-4.5s-0.6-1.7-1.1-2.1s-1.4-0.5-2.5-0.5h-3.4
			L162.8,95.5L162.8,95.5z"/>
		<path class="st0" d="M183,123.4V74.8h6v48.6H183z"/>
		<path class="st0" d="M206.2,123.9c-2.4,0-4.4-0.5-5.8-1.6c-1.4-1.1-2.5-2.7-3.1-4.8c-0.6-2.1-1-4.8-1-8V87.9
			c0-2.8,0.3-5.2,0.9-7.3c0.6-2,1.6-3.6,3.1-4.8c1.5-1.1,3.5-1.7,6.1-1.7c1.9,0,3.6,0.3,4.8,1c1.3,0.6,2.2,1.6,2.9,2.8
			c0.7,1.2,1.2,2.6,1.5,4.3c0.3,1.7,0.4,3.6,0.4,5.7v21.6c0,3.2-0.3,5.9-0.9,8c-0.6,2.1-1.6,3.7-3,4.8
			C210.6,123.4,208.7,123.9,206.2,123.9z M206.2,118.7c1,0,1.8-0.3,2.3-0.9s0.9-1.6,1.1-2.9c0.2-1.3,0.3-3.1,0.3-5.4v-22
			c0-2.7-0.2-4.8-0.7-6.1c-0.4-1.4-1.4-2-2.9-2s-2.6,0.7-3.1,2s-0.8,3.4-0.8,6.1v22c0,2.3,0.1,4.1,0.3,5.4s0.6,2.3,1.1,2.9
			C204.4,118.4,205.2,118.7,206.2,118.7z"/>
		<path class="st0" d="M231.3,123.9c-2,0-3.6-0.3-4.8-1c-1.3-0.7-2.2-1.7-2.9-3s-1.2-2.8-1.4-4.6c-0.3-1.8-0.4-3.7-0.4-5.9v-4.6h5.9
			v4.9c0,3.2,0.2,5.6,0.7,7s1.5,2.1,3.1,2.1c1.1,0,1.9-0.2,2.4-0.7s0.8-1.3,1-2.4s0.2-2.6,0.2-4.4c0-2.1-0.4-3.9-1.1-5.5
			c-0.8-1.6-1.9-3.1-3.4-4.5l-3.3-3.3c-0.9-1-1.8-2-2.7-3.1s-1.6-2.4-2.1-3.8c-0.6-1.4-0.8-3-0.8-4.8c0-2.5,0.3-4.6,0.8-6.4
			s1.5-3.1,2.9-4.1s3.3-1.4,5.9-1.4c2,0,3.6,0.3,4.8,1s2.1,1.6,2.7,2.9c0.6,1.2,1,2.7,1.2,4.4c0.2,1.7,0.3,3.6,0.3,5.7v2.9h-5.7V88
			c0-1.9-0.1-3.4-0.2-4.7c-0.2-1.2-0.5-2.2-0.9-2.8c-0.5-0.6-1.2-0.9-2.1-0.9c-0.9,0-1.6,0.2-2.2,0.6c-0.6,0.4-1,1.1-1.2,2
			s-0.4,2-0.4,3.4c0,1.2,0.2,2.3,0.5,3.1c0.3,0.8,0.8,1.6,1.4,2.3c0.6,0.7,1.4,1.5,2.3,2.5l3.4,3.7c1.8,1.9,3.2,3.9,4.3,6.2
			c1.1,2.3,1.7,4.8,1.7,7.8c0,2.7-0.3,5.1-0.8,7s-1.5,3.4-2.9,4.5C235.8,123.4,233.8,123.9,231.3,123.9z"/>
		<path class="st0" d="M278.7,120.8V81.9h6.7c2.1,0,3.6,0.4,4.8,1.3c1.1,0.9,1.9,2.1,2.3,3.7s0.6,3.5,0.6,5.8v16.9
			c0,2.6-0.3,4.8-0.8,6.4s-1.3,2.9-2.5,3.6c-1.1,0.8-2.7,1.1-4.6,1.1L278.7,120.8L278.7,120.8z M282.6,117.4h2.5
			c0.9,0,1.6-0.2,2.2-0.6s1-1.1,1.3-2.2s0.4-2.7,0.4-4.8V92.5c0-2.6-0.3-4.5-0.9-5.7c-0.6-1.1-1.6-1.7-2.9-1.7h-2.6V117.4z"/>
		<path class="st0" d="M296.9,120.8l6-38.9h4.5l6.6,38.9h-3.8l-1.2-7.7h-7.4l-1.1,7.7H296.9z M302.3,109.9h6.4l-3.3-21.3h-0.1
			L302.3,109.9z"/>
	</g>
	<g>
		<path class="st0" d="M10.4,185.7V127h8.9v58.7H10.4z"/>
		<path class="st0" d="M28.4,185.7V127h7l12.4,35.2l-0.6-16V127h8v58.7h-6.3l-12.8-36.5l0.5,15.4v21.1H28.4z"/>
		<path class="st0" d="M64,185.7V127h13.2c3,0,5.4,0.6,7.2,1.8c1.8,1.2,3.1,2.9,3.9,5.2c0.8,2.2,1.2,5,1.2,8.1v26.5
			c0,3.8-0.4,7-1.3,9.6c-0.8,2.5-2.2,4.4-4,5.7c-1.8,1.2-4.3,1.9-7.4,1.9H64V185.7z M73,178.8h2.9c1,0,1.9-0.2,2.6-0.6
			c0.7-0.4,1.2-1.2,1.6-2.3c0.3-1.1,0.5-2.6,0.5-4.6v-29c0-3-0.4-5.2-1.1-6.5s-2-2-3.9-2H73V178.8z"/>
		<path class="st0" d="M97.7,185.7V127h19.7v7.7h-10.7v17.1h10.2v7.5h-10.2V178h11.1v7.7H97.7z"/>
		<path class="st0" d="M124.4,185.7V127h13.5c2.3,0,4.3,0.4,5.8,1.1c1.5,0.7,2.8,1.8,3.7,3.2s1.5,3.1,1.9,5.2
			c0.4,2.1,0.6,4.4,0.6,7.1v1.2c0,3.8-0.3,7-1,9.7s-1.8,4.7-3.5,6.1c-1.7,1.4-4.1,2.1-7.1,2.1h-4.8v23.2h-9.1V185.7z M133.3,155.2
			h3.1c1.3,0,2.3-0.3,2.9-1c0.6-0.7,1.1-1.8,1.3-3.3s0.3-3.6,0.3-6.2v-1.1c0-3.2-0.3-5.6-0.8-7.2c-0.5-1.6-1.7-2.5-3.6-2.5h-3.1
			L133.3,155.2L133.3,155.2z"/>
		<path class="st0" d="M155.9,185.7V127h19.7v7.7h-10.7v17.1H175v7.5h-10.2V178h11.1v7.7H155.9z"/>
		<path class="st0" d="M182.6,185.7V127h7l12.4,35.2l-0.6-16V127h8v58.7h-6.3l-12.8-36.5l0.5,15.4v21.1H182.6z"/>
		<path class="st0" d="M218.2,185.7V127h13.2c3,0,5.4,0.6,7.2,1.8c1.8,1.2,3.1,2.9,3.9,5.2c0.8,2.2,1.2,5,1.2,8.1v26.5
			c0,3.8-0.4,7-1.3,9.6c-0.8,2.5-2.2,4.4-4,5.7c-1.8,1.2-4.3,1.9-7.4,1.9h-12.8V185.7z M227.2,178.8h2.9c1,0,1.9-0.2,2.6-0.6
			c0.7-0.4,1.2-1.2,1.6-2.3c0.3-1.1,0.5-2.6,0.5-4.6v-29c0-3-0.4-5.2-1.1-6.5c-0.7-1.3-2-2-3.9-2h-2.6V178.8z"/>
		<path class="st0" d="M250.1,122.3l6.3-11.2h10.1l6.3,11.2h-8.4l-2.9-7.9l-2.9,7.9H250.1z M251.9,185.7V127h19.7v7.7h-10.7v17.1
			H271v7.5h-10.2V178H272v7.7H251.9z"/>
		<path class="st0" d="M278.6,185.7V127h7l12.4,35.2l-0.6-16V127h8v58.7h-6.3l-12.8-36.5l0.5,15.4v21.1H278.6z"/>
		<path class="st0" d="M326.3,186.4c-2.8,0-5.2-0.7-7.1-2s-3.3-3.2-4.3-5.8c-0.9-2.5-1.4-5.6-1.4-9.2v-25.6c0-2.7,0.2-5.1,0.7-7.3
			c0.4-2.2,1.2-4,2.2-5.5s2.3-2.7,4-3.5s3.7-1.2,6.2-1.2c2.2,0,4.1,0.4,5.7,1.1c1.6,0.7,2.8,1.8,3.8,3.1c1,1.4,1.7,3,2.2,4.9
			s0.7,4.1,0.7,6.5v8.1h-8.6v-7.5c0-2.9-0.2-5-0.7-6.4s-1.5-2.1-2.9-2.1c-1.6,0-2.7,0.7-3.3,2.2c-0.5,1.5-0.8,3.5-0.8,6.2v27.4
			c0,2,0.1,3.7,0.4,5c0.2,1.3,0.6,2.3,1.2,2.9c0.6,0.6,1.3,0.9,2.3,0.9c1.5,0,2.5-0.7,3.1-2.1c0.5-1.4,0.8-3.7,0.8-6.8v-8.4h8.8v8.3
			c0,3.7-0.4,6.8-1.3,9.3s-2.2,4.3-4.1,5.6C331.7,185.8,329.3,186.4,326.3,186.4z"/>
		<path class="st0" d="M346.8,185.7V127h8.9v58.7H346.8z"/>
		<path class="st0" d="M361.2,185.7l8.4-58.7h11.8l8.9,58.7H382l-1.4-10.5h-9.5l-1.3,10.5H361.2z M372,168h7.7l-3.9-29.5h-0.1
			L372,168z"/>
	</g>
</g>
</svg>
